<?xml version="1.0" standalone="no"?>
<!DOCTYPE svg PUBLIC "-//W3C//DTD SVG 20010904//EN"
 "http://www.w3.org/TR/2001/REC-SVG-20010904/DTD/svg10.dtd">
<svg version="1.0" xmlns="http://www.w3.org/2000/svg"
 width="428.000000pt" height="424.000000pt" viewBox="0 0 428.000000 424.000000"
 preserveAspectRatio="xMidYMid meet">

<g transform="translate(0.000000,424.000000) scale(0.100000,-0.100000)"
fill="#000000" stroke="none">
<path d="M2141 3954 c0 -11 3 -14 6 -6 3 7 2 16 -1 19 -3 4 -6 -2 -5 -13z"/>
<path d="M2130 3518 c-40 -7 -143 -59 -155 -79 -4 -5 14 2 38 15 29 15 50 20
59 15 11 -7 11 -9 0 -9 -8 0 -37 -16 -66 -35 -29 -19 -56 -35 -60 -35 -4 0
-13 -6 -21 -12 -7 -7 -40 -38 -74 -68 -34 -30 -61 -60 -61 -67 0 -7 -3 -13 -8
-13 -9 0 -52 -93 -52 -114 0 -14 -42 -100 -56 -115 -8 -8 5 59 16 81 6 12 -25
-15 -70 -61 -44 -46 -80 -88 -80 -92 0 -5 -9 -18 -20 -29 -11 -11 -20 -26 -20
-32 0 -8 7 -5 15 6 14 19 15 18 15 -13 0 -18 -7 -46 -15 -62 -8 -16 -22 -43
-31 -60 -12 -24 -14 -33 -5 -39 7 -4 16 -32 20 -63 4 -31 13 -62 19 -69 6 -8
11 -23 11 -33 -1 -11 1 -36 4 -55 11 -83 20 -111 41 -122 20 -10 20 -10 5 8
-17 20 -33 104 -19 104 9 0 50 -129 50 -159 0 -15 -18 -32 -62 -58 -89 -54
-142 -112 -162 -177 -23 -73 -19 -110 14 -114 32 -5 50 -20 50 -43 0 -10 9
-24 21 -33 16 -11 20 -21 15 -43 -6 -27 -4 -31 33 -45 30 -12 40 -22 46 -47 9
-40 19 -33 54 37 16 31 41 74 56 96 29 42 50 117 23 83 -13 -17 -15 -18 -28
-2 -12 14 -10 19 12 38 14 12 28 29 31 37 4 12 6 11 6 -2 1 -23 6 -23 31 2 11
11 16 20 10 20 -5 0 -10 4 -10 9 0 5 15 9 33 10 78 2 81 6 42 53 -24 28 -35
65 -16 53 5 -3 13 0 16 5 5 8 13 6 24 -4 10 -9 21 -13 24 -9 10 10 8 25 -2 19
-5 -4 -7 4 -4 16 3 16 2 19 -4 10 -7 -9 -10 -4 -10 18 l0 30 19 -30 c10 -17
18 -34 18 -39 0 -4 10 -7 21 -7 12 1 24 -6 26 -14 4 -13 3 -13 -6 0 -7 11 -13
12 -21 4 -8 -8 -7 -15 3 -26 8 -8 14 -31 13 -53 -1 -38 0 -40 36 -45 35 -6 36
-6 26 14 -9 17 -5 16 18 -6 34 -32 154 -62 162 -40 2 7 8 10 13 7 5 -4 6 1 3
10 -7 17 14 48 26 40 5 -3 12 0 16 6 4 8 3 9 -4 5 -21 -13 -13 12 11 34 28 27
131 84 177 99 19 6 48 23 65 38 25 24 65 40 65 26 0 -7 -38 -38 -89 -75 -28
-20 -42 -25 -38 -16 4 13 -2 11 -28 -5 -19 -12 -34 -29 -35 -38 0 -9 -13 -28
-30 -42 -34 -31 -38 -47 -12 -47 14 0 15 2 3 9 -12 8 -9 12 13 23 16 7 42 25
58 40 17 15 35 28 42 28 7 0 37 22 67 49 79 71 187 124 114 57 -28 -26 -28
-26 -5 -26 22 0 23 -1 5 -20 -19 -21 -7 -28 13 -8 10 10 14 10 21 0 9 -15 59
37 86 88 19 38 29 39 21 3 -7 -28 -7 -28 9 -6 40 57 42 201 4 309 -11 32 -21
72 -21 89 1 18 -2 24 -7 16 -6 -10 -10 -9 -14 4 -4 9 -3 13 3 10 6 -3 10 -1
10 5 0 6 13 -2 29 -17 25 -25 54 -73 90 -153 11 -24 11 -24 5 -1 -4 15 -2 21
4 17 14 -9 43 -96 31 -96 -5 0 -10 6 -11 13 0 6 -4 -34 -8 -91 -4 -67 -11
-106 -19 -111 -7 -5 -12 -12 -11 -17 3 -16 -32 -60 -65 -82 -47 -33 -53 -26
-14 16 40 43 73 99 62 105 -5 3 -18 -11 -31 -32 -13 -20 -39 -47 -58 -61 -90
-65 -123 -93 -119 -100 3 -5 -16 -16 -42 -24 -55 -19 -72 -31 -96 -66 -11 -15
-17 -19 -17 -10 -1 10 -7 8 -20 -9 -12 -14 -20 -18 -21 -10 0 8 -4 4 -10 -9
-5 -14 -5 -31 0 -40 4 -9 6 -23 4 -29 -5 -13 -1 -15 40 -16 17 -1 21 4 20 21
-2 18 2 22 25 22 20 0 23 3 12 10 -28 18 -1 22 37 5 86 -38 108 -52 111 -70 2
-11 11 -28 19 -37 11 -13 14 -31 11 -63 -6 -49 -2 -54 18 -27 25 32 14 -5 -21
-72 -35 -67 -44 -109 -25 -121 6 -4 7 1 3 11 -4 12 -3 15 5 10 7 -4 12 -1 12
7 0 20 42 29 75 17 38 -15 55 -12 56 8 1 11 4 9 9 -8 4 -14 8 -19 9 -12 1 7 6
10 11 7 6 -3 10 0 10 7 1 9 4 8 10 -3 7 -13 21 -15 65 -12 30 2 55 2 55 -1 0
-2 -26 -20 -57 -40 -43 -27 -60 -33 -70 -25 -10 9 -13 8 -13 -4 0 -8 -6 -18
-12 -20 -8 -3 -6 -6 5 -6 20 -1 61 -86 53 -108 -3 -7 -1 -13 4 -13 8 0 33 -60
36 -90 1 -8 12 -42 24 -75 28 -78 59 -238 67 -347 5 -74 8 -84 20 -73 12 12
11 28 -2 107 -8 51 -17 104 -21 118 -4 19 13 6 73 -56 114 -117 132 -132 143
-114 5 8 12 11 17 7 4 -5 1 -12 -6 -16 -13 -9 -13 -22 5 -81 l7 -25 -22 28
c-12 15 -27 27 -32 27 -5 0 -32 -14 -60 -31 -42 -26 -53 -29 -61 -18 -8 11 -9
10 -4 -3 3 -11 0 -18 -8 -18 -8 0 -16 6 -19 13 -2 6 -3 -10 -1 -36 1 -27 5
-51 7 -54 3 -2 17 8 31 22 l26 26 0 -25 c0 -14 -4 -36 -10 -50 -5 -14 -6 -26
-2 -26 4 0 16 -16 26 -35 21 -38 23 -38 188 -40 32 0 51 -5 60 -17 20 -26 178
-58 307 -64 62 -2 117 -7 122 -9 4 -3 99 -19 210 -35 228 -33 261 -47 180 -73
-37 -12 -59 -13 -83 -6 -18 5 -53 9 -77 9 -34 0 -42 -3 -37 -15 9 -23 -32 -47
-58 -33 -12 7 -33 11 -49 10 -17 -2 -30 4 -33 13 -10 25 -23 17 -39 -22 -15
-36 -15 -39 6 -55 11 -10 32 -18 45 -18 13 0 24 -5 24 -10 0 -25 -60 -34 -222
-34 -120 -1 -171 -5 -179 -14 -17 -16 -37 -15 -57 4 -19 20 -96 13 -122 -11
-21 -19 -40 -19 -68 1 -12 8 -22 12 -22 9 0 -3 -9 -1 -20 5 -11 6 -20 17 -20
24 0 41 -111 66 -140 31 -14 -17 -46 -20 -55 -5 -3 6 -18 7 -31 4 -17 -5 -34
0 -52 13 -32 23 -88 44 -96 36 -3 -4 -6 -33 -6 -65 0 -44 -3 -57 -12 -52 -10
6 -10 4 0 -7 17 -18 15 -34 -3 -19 -18 15 -19 7 -3 -23 18 -35 31 -42 78 -44
25 -1 89 -12 143 -25 87 -19 106 -20 156 -10 31 7 76 12 99 12 22 0 44 5 47
11 4 6 37 9 78 8 40 -1 104 2 142 5 39 3 155 8 259 11 154 4 192 2 205 -9 9
-8 25 -16 36 -18 13 -2 20 -11 19 -26 0 -17 5 -22 26 -22 25 0 27 3 26 38 -1
35 1 37 33 40 18 2 38 -1 43 -6 6 -6 27 -7 49 -5 25 4 39 2 39 -6 0 -6 5 -11
10 -11 6 0 10 87 10 241 l0 240 -44 -6 c-29 -5 -46 -3 -51 5 -11 17 9 32 52
39 33 5 38 10 41 35 l4 29 -54 -8 c-68 -10 -297 -12 -456 -3 -111 6 -128 9
-161 32 -20 14 -44 26 -53 26 -9 0 -30 11 -46 25 -19 16 -42 25 -65 25 -37 0
-59 26 -35 42 17 10 26 10 64 -1 21 -6 41 -4 63 5 17 7 38 11 45 8 8 -3 24 -1
35 5 16 9 22 8 29 -5 12 -22 77 -35 187 -39 50 -2 95 -4 101 -4 6 -1 16 -12
22 -26 11 -24 16 -25 92 -25 75 0 81 2 75 19 -9 29 14 40 70 31 28 -5 58 -11
68 -15 16 -7 17 25 17 579 0 322 -2 586 -6 586 -3 0 -32 -18 -65 -41 -59 -40
-60 -42 -58 -83 3 -49 -5 -66 -31 -66 -22 0 -70 58 -63 77 3 7 9 11 13 8 5 -3
19 12 31 32 13 21 32 46 42 56 14 14 17 26 12 45 -4 15 -8 38 -10 52 -2 35
-23 70 -40 70 -8 0 -25 10 -37 22 -14 14 -23 18 -26 10 -7 -22 -34 -13 -30 11
2 18 10 23 41 25 35 3 37 5 37 38 0 30 -3 34 -25 34 -29 0 -31 7 -7 36 26 30
95 46 140 30 32 -11 41 19 14 46 -30 31 -124 29 -157 -2 -23 -22 -27 -22 -82
-9 -56 13 -137 15 -216 7 -30 -4 -43 1 -70 25 -17 16 -48 37 -69 48 -20 10
-50 35 -68 56 l-31 38 -20 -27 c-12 -17 -30 -28 -44 -28 -34 0 -55 -10 -55
-26 0 -25 -18 -15 -29 17 -13 37 -6 52 18 44 10 -3 24 1 31 10 6 8 28 17 47
21 43 8 48 20 28 67 -18 45 -19 47 -1 47 8 0 20 -16 27 -35 19 -51 32 -43 27
15 -9 87 -67 121 -99 57 -12 -24 -23 -33 -47 -35 -40 -4 -66 -42 -30 -43 21 0
22 -1 3 -8 -12 -5 -25 -3 -33 6 -16 15 -32 17 -32 3 0 -5 -11 -17 -24 -25 -22
-15 -27 -15 -55 -1 -16 9 -38 16 -48 16 -21 0 -51 62 -33 68 5 2 3 10 -5 19
-14 14 -14 17 2 29 17 13 17 15 1 27 -9 7 -29 45 -43 83 -14 38 -42 103 -62
144 -54 114 -89 188 -122 262 -64 145 -218 298 -299 298 -11 0 -25 7 -32 15
-14 17 -100 21 -100 4 0 -6 -7 -3 -16 5 -8 9 -20 14 -25 10 -5 -3 -28 1 -52
10 -46 17 -202 25 -267 14z m-35 -28 c-3 -5 -12 -10 -18 -10 -7 0 -6 4 3 10
19 12 23 12 15 0z m375 -20 c0 -5 -2 -10 -4 -10 -3 0 -8 5 -11 10 -3 6 -1 10
4 10 6 0 11 -4 11 -10z m195 -40 c3 -5 2 -10 -4 -10 -5 0 -13 5 -16 10 -3 6
-2 10 4 10 5 0 13 -4 16 -10z m-30 -48 c-3 -3 -11 0 -18 7 -9 10 -8 11 6 5 10
-3 15 -9 12 -12z m63 -17 c-3 -3 -9 2 -12 12 -6 14 -5 15 5 6 7 -7 10 -15 7
-18z m-12 -23 c35 -30 61 -72 45 -72 -13 0 -62 49 -79 78 -16 29 -4 27 34 -6z
m-398 -167 c4 -6 15 -14 25 -18 9 -3 17 -15 17 -26 0 -22 88 -116 118 -125 10
-4 24 -17 30 -31 9 -20 8 -26 -5 -34 -15 -8 -14 -12 4 -47 11 -22 18 -44 16
-51 -2 -6 6 -13 19 -16 19 -3 18 -5 -7 -6 -23 -1 -27 -3 -15 -11 8 -5 11 -10
5 -11 -5 0 1 -5 15 -9 20 -7 14 -8 -25 -8 -27 1 -58 5 -67 10 -12 5 -18 5 -18
-2 0 -5 -5 -10 -11 -10 -6 0 -9 7 -6 14 4 11 -10 21 -49 35 -30 12 -59 21 -64
21 -17 0 -11 18 8 22 17 4 102 -30 113 -46 4 -4 9 -4 13 2 8 13 -16 37 -56 58
-40 21 -182 27 -217 10 -32 -16 -84 -6 -114 22 -12 11 -36 27 -54 36 -42 21
-48 32 -31 59 8 12 20 41 27 65 6 23 16 40 21 37 6 -4 10 1 10 10 0 9 7 26 16
40 15 23 19 24 145 23 86 -1 132 -5 137 -13z m358 -36 c27 -28 57 -55 67 -60
18 -10 18 -9 1 16 -9 14 -15 28 -12 30 11 12 68 -38 83 -73 11 -24 23 -38 31
-35 6 2 15 0 19 -6 3 -7 0 -8 -9 -5 -18 7 -23 -21 -6 -31 15 -9 1 -27 -16 -21
-8 3 -14 1 -14 -4 0 -6 5 -10 10 -10 6 0 10 -5 10 -10 0 -7 -6 -7 -19 -1 -10
6 -22 7 -26 3 -5 -4 -5 -2 -1 5 8 15 -72 96 -86 87 -7 -4 -8 -2 -4 4 7 11 -14
17 -39 12 -5 -1 -7 2 -3 6 4 4 3 13 -3 21 -7 7 -13 32 -14 55 -2 26 -9 46 -21
55 -10 7 -13 13 -7 13 6 0 32 -23 59 -51z m-846 -4 c11 7 25 -99 15 -115 -4
-6 -9 -25 -12 -42 -2 -17 -20 -74 -40 -127 -19 -53 -37 -107 -40 -121 -11 -47
-40 -83 -70 -86 -26 -3 -27 -2 -8 9 12 7 19 19 17 29 -2 9 2 19 7 23 6 3 11
16 11 28 0 17 2 19 9 8 7 -11 13 -7 25 18 9 17 14 31 10 31 -4 0 -1 6 5 14 6
8 11 18 9 22 -3 12 13 58 22 64 5 3 11 32 14 65 l6 60 -20 -60 c-11 -33 -24
-69 -29 -80 -5 -11 -15 -42 -21 -68 -17 -66 -23 -53 -11 24 6 34 9 65 6 67 -2
3 -26 -18 -52 -47 -36 -38 -52 -48 -63 -41 -11 7 -4 20 39 69 29 34 44 58 34
54 -16 -6 -16 -5 -4 11 8 9 20 15 28 12 8 -3 11 -2 8 3 -3 6 1 13 9 18 20 11
66 99 66 126 0 12 3 33 7 47 7 25 8 25 11 2 2 -12 7 -20 12 -17z m62 -92 c3
-21 1 -39 -4 -41 -4 -2 -8 -19 -8 -38 0 -26 -3 -32 -15 -28 -9 4 -15 1 -15 -7
0 -8 -3 -24 -6 -35 -3 -13 0 -23 9 -27 10 -4 13 1 9 19 -3 15 0 24 8 24 21 0
5 -77 -34 -163 -22 -48 -53 -94 -80 -122 -48 -47 -76 -60 -54 -25 7 11 19 18
26 15 7 -3 11 -1 7 4 -7 13 27 71 43 71 7 0 12 6 10 13 -1 6 8 35 21 62 26 58
40 119 21 95 -9 -13 -10 -12 -6 5 25 98 28 108 36 95 5 -8 11 7 15 43 4 30 4
60 0 66 -3 6 -2 11 3 11 6 0 12 -17 14 -37z m1006 -43 c-2 -7 -10 1 -17 16
-12 27 -11 28 4 12 10 -9 16 -21 13 -28z m-165 -35 c21 -19 35 -40 32 -45 -6
-9 23 -58 51 -87 7 -7 10 -21 7 -32 -3 -10 0 -28 6 -40 7 -12 9 -21 7 -21 -10
0 -40 65 -37 79 1 7 -2 10 -7 7 -9 -5 -31 15 -47 44 -8 13 -7 13 8 1 21 -17
22 -7 1 24 -13 20 -14 25 -3 25 8 0 -11 23 -41 51 -30 27 -46 46 -35 40 11 -5
37 -26 58 -46z m-920 -140 c-3 -9 -8 -14 -10 -11 -3 3 -2 9 2 15 9 16 15 13 8
-4z m467 -4 c-24 -15 -97 -25 -85 -13 6 6 26 12 45 15 19 2 40 4 45 5 6 1 3
-3 -5 -7z m504 -39 c37 -45 50 -77 19 -46 -27 26 -63 77 -63 88 0 11 -2 13 44
-42z m-384 13 c0 -9 -9 -15 -21 -15 -11 0 -28 -8 -37 -17 -16 -16 -17 -15 -20
1 -5 23 0 27 40 36 18 4 34 8 36 9 1 1 2 -6 2 -14z m-380 -4 c-16 -4 -25 -15
-26 -28 -2 -32 -15 -48 -25 -32 -13 22 -11 29 8 22 15 -6 16 -5 3 9 -10 11
-19 13 -27 6 -7 -5 -17 -7 -23 -3 -5 3 -10 1 -10 -4 0 -6 6 -11 13 -11 8 0 13
-15 14 -40 2 -35 -2 -42 -23 -50 -36 -14 -37 -13 -30 22 13 65 27 108 34 105
4 -3 16 -1 27 4 11 4 36 7 55 7 31 0 32 -1 10 -7z m96 -23 c-9 15 -5 15 30 2
15 -6 31 -7 38 -2 6 5 35 12 64 16 42 5 53 4 50 -6 -3 -7 -11 -13 -19 -13 -8
0 -19 -4 -26 -8 -6 -4 -13 -1 -16 5 -3 10 -11 9 -33 -4 -16 -9 -29 -21 -30
-27 -2 -7 -1 -7 3 -1 2 5 17 10 31 9 l27 -1 -25 -8 c-26 -9 27 -7 158 5 54 6
62 4 62 -11 0 -10 -3 -15 -6 -11 -4 3 -21 -1 -38 -11 -17 -9 -42 -17 -56 -17
-15 0 -24 -5 -23 -12 4 -17 -6 -16 -40 2 -15 8 -25 10 -22 5 4 -6 2 -10 -3
-10 -6 0 -13 8 -16 17 -6 15 -8 15 -16 3 -7 -10 -10 -11 -10 -2 0 6 -4 12 -10
12 -5 0 -10 -7 -10 -15 0 -8 14 -17 35 -21 43 -8 45 -20 4 -29 -29 -6 -43 -2
-44 13 -3 37 -18 103 -24 106 -8 6 -8 -10 4 -80 7 -39 5 -42 -23 -57 -27 -13
-33 -13 -49 0 -16 13 -16 14 -1 9 14 -4 17 2 16 33 -1 58 -16 74 -23 26 l-7
-40 -51 0 c-52 0 -52 0 -54 33 -1 21 3 32 12 32 7 0 27 16 44 35 19 22 36 33
46 29 8 -4 15 -1 15 6 0 9 8 6 22 -6 12 -10 18 -13 14 -6z m374 -15 c8 -3 26
-5 39 -4 20 2 21 1 10 -12 -7 -8 -22 -12 -33 -9 -11 3 -17 1 -13 -5 3 -5 -6
-10 -23 -10 -23 0 -29 5 -32 27 -4 28 5 30 52 13z m-718 -15 c-7 -7 -12 -8
-12 -2 0 14 12 26 19 19 2 -3 -1 -11 -7 -17z m918 -77 c0 -18 -4 -14 -24 29
l-17 35 20 -25 c11 -14 21 -31 21 -39z m-270 34 c0 -2 -10 -10 -22 -16 -21
-11 -22 -11 -9 4 13 16 31 23 31 12z m670 -77 c0 -10 -5 -16 -10 -13 -16 10
-40 62 -32 69 10 10 42 -33 42 -56z m-334 2 c4 -17 11 -27 17 -23 6 4 8 -4 5
-20 -3 -15 -1 -24 3 -21 14 8 10 -19 -6 -40 -15 -19 -15 -19 -15 2 0 25 -3 26
-31 12 -10 -6 -19 -18 -19 -28 -1 -40 -15 -36 -16 4 0 33 3 43 13 40 14 -6 16
6 7 41 -4 13 -10 20 -15 17 -5 -3 -6 2 -3 10 8 21 21 20 27 -1 3 -11 5 -7 6
10 1 36 20 35 27 -3z m-116 -36 c0 -8 -7 -14 -15 -14 -8 0 -15 -6 -15 -14 0
-11 9 -13 38 -9 l37 5 -29 -26 -29 -26 26 0 c36 0 34 -16 -4 -35 -28 -15 -33
-15 -55 0 -27 18 -31 37 -9 55 9 8 13 21 9 36 -4 13 -1 31 6 39 13 16 40 9 40
-11z m-645 7 c3 -6 30 -9 61 -8 48 2 57 -1 74 -23 32 -42 26 -50 -27 -35 -169
48 -164 47 -152 61 13 16 35 18 44 5z m1030 -126 c31 -48 49 -88 51 -112 l3
-38 -20 35 c-11 19 -18 27 -15 17 22 -71 21 -73 -13 -35 -24 28 -31 43 -26 60
5 17 4 19 -4 8 -12 -18 -16 -14 -25 25 -5 22 -4 26 4 15 8 -12 10 -12 10 -1 0
11 3 11 15 1 16 -13 21 -1 7 16 -21 22 -53 84 -45 84 5 0 31 -34 58 -75z
m-1105 33 c0 -16 -3 -19 -11 -11 -6 6 -8 16 -5 22 11 17 16 13 16 -11z m180 1
c19 -6 41 -16 48 -22 6 -5 12 -6 12 -2 0 4 7 2 15 -5 8 -7 43 -14 78 -17 34
-2 64 -8 65 -14 2 -5 16 -9 30 -9 49 0 57 -14 31 -50 -44 -59 -154 -97 -311
-107 -68 -4 -88 -2 -88 7 0 8 -3 10 -7 7 -11 -12 -53 35 -53 58 0 30 31 56 58
48 15 -3 22 -1 22 8 0 11 2 11 10 -1 7 -11 10 -12 10 -2 0 8 7 11 18 8 9 -3
24 -1 32 4 11 7 7 10 -17 10 -18 0 -33 5 -33 11 0 6 -6 9 -14 6 -16 -6 -40 16
-29 26 3 4 0 13 -6 21 -7 8 -10 20 -6 26 8 14 84 7 135 -11z m1110 -14 c0 -5
-5 -3 -10 5 -5 8 -10 20 -10 25 0 6 5 3 10 -5 5 -8 10 -19 10 -25z m-423 -17
c-3 -8 -6 -5 -6 6 -1 11 2 17 5 13 3 -3 4 -12 1 -19z m403 -4 c0 -9 5 -12 11
-8 7 4 10 2 8 -5 -7 -19 -22 -15 -31 8 -4 12 -3 21 2 21 6 0 10 -7 10 -16z
m93 -90 c-1 -88 12 -94 40 -18 25 67 39 82 49 55 8 -23 1 -51 -13 -51 -14 0
-10 -37 4 -43 17 -6 66 3 73 14 3 5 18 9 34 9 21 0 33 -8 47 -30 9 -16 23 -30
30 -30 7 0 15 -16 19 -35 3 -19 10 -35 15 -35 5 0 9 -6 9 -12 0 -16 59 -21 76
-7 20 16 91 -7 97 -32 10 -39 -1 -49 -51 -43 -26 3 -57 11 -70 17 -19 9 -25 7
-38 -11 -8 -12 -21 -22 -28 -22 -21 0 -39 -28 -42 -63 -1 -18 0 -26 3 -19 9
23 30 12 57 -28 27 -42 52 -45 42 -6 -7 30 4 42 46 49 35 5 37 4 48 -29 7 -20
9 -56 5 -89 -5 -38 -4 -55 4 -55 6 0 11 -9 11 -20 0 -26 -30 -27 -37 -1 -6 23
-46 46 -67 38 -19 -7 -67 9 -77 25 -4 7 -13 13 -21 14 -7 1 -51 24 -98 50
-117 67 -165 88 -223 98 -24 4 -28 2 -22 -12 4 -12 0 -11 -14 5 -22 24 -27 43
-11 43 6 0 10 9 10 20 0 22 -15 27 -23 8 -3 -7 -5 -4 -6 7 0 11 4 29 8 40 5
12 3 28 -4 40 -14 21 -9 85 6 85 5 0 9 -7 9 -15 0 -8 5 -15 10 -15 6 0 10 9
10 20 0 12 5 17 14 14 16 -6 26 24 26 84 0 24 5 53 11 64 20 36 34 3 32 -78z
m-596 54 c-3 -8 -6 -5 -6 6 -1 11 2 17 5 13 3 -3 4 -12 1 -19z m510 -30 c-3
-8 -6 -5 -6 6 -1 11 2 17 5 13 3 -3 4 -12 1 -19z m-1306 -39 c-5 -13 -10 -19
-10 -12 -1 15 10 45 15 40 3 -2 0 -15 -5 -28z m-61 -15 c0 -8 -5 -12 -10 -9
-6 4 -8 11 -5 16 9 14 15 11 15 -7z m-15 -21 c36 -17 46 -33 20 -33 -8 0 -15
5 -15 10 0 6 -6 10 -14 10 -7 0 -19 7 -26 15 -16 19 -9 19 35 -2z m1801 -5
c21 -24 48 -78 39 -78 -3 0 -23 11 -44 24 -32 21 -38 29 -34 50 6 32 14 32 39
4z m-1006 8 c0 -2 -8 -10 -17 -17 -16 -13 -17 -12 -4 4 13 16 21 21 21 13z
m-800 -61 c0 -8 -2 -15 -4 -15 -2 0 -6 7 -10 15 -3 8 -1 15 4 15 6 0 10 -7 10
-15z m880 -19 c0 -3 -4 -8 -10 -11 -5 -3 -10 -1 -10 4 0 6 5 11 10 11 6 0 10
-2 10 -4z m1236 -10 c7 -19 -13 -56 -31 -56 -21 0 -26 15 -15 44 10 28 37 35
46 12z m-2145 -39 c-10 -9 -11 -8 -5 6 3 10 9 15 12 12 3 -3 0 -11 -7 -18z
m-18 -63 c-3 -24 -11 -41 -18 -41 -10 0 -11 7 -4 26 9 24 8 25 -6 7 -18 -24
-29 -16 -20 14 4 13 12 19 21 16 8 -3 17 1 21 10 9 25 12 11 6 -32z m1272 -60
c4 -49 3 -89 -3 -100 -12 -22 0 -103 16 -113 6 -4 -14 -31 -48 -64 -36 -35
-61 -70 -65 -89 -5 -21 -10 -27 -15 -17 -7 10 -12 10 -26 -2 -16 -13 -17 -12
-9 6 9 21 10 42 3 180 -4 81 8 159 22 150 9 -6 20 18 20 43 0 9 12 28 25 41
14 13 25 31 26 40 0 10 4 7 12 -9 11 -25 11 -25 15 9 6 55 20 18 27 -75z
m-1311 0 c3 -8 2 -12 -4 -9 -6 3 -10 10 -10 16 0 14 7 11 14 -7z m1136 -45 c0
-52 -24 -48 -28 4 -2 28 1 37 12 37 12 0 16 -11 16 -41z m-1328 -11 c8 -21 -2
-38 -23 -38 -21 0 -25 20 -7 38 15 15 25 15 30 0z m1578 2 c0 -5 -2 -10 -4
-10 -3 0 -8 5 -11 10 -3 6 -1 10 4 10 6 0 11 -4 11 -10z m64 -16 c14 -36 6
-44 -19 -22 -25 21 -25 38 0 38 7 0 16 -7 19 -16z m-89 -14 c3 -5 1 -10 -4
-10 -6 0 -11 5 -11 10 0 6 2 10 4 10 3 0 8 -4 11 -10z m81 -147 c-9 -30 -16
-79 -10 -65 3 6 10 12 15 12 11 0 4 -72 -14 -130 l-13 -45 -8 50 c-4 28 -12
62 -18 77 -8 22 -6 36 12 73 21 43 47 63 36 28z m712 5 c10 -10 17 -10 32 0
15 9 22 9 35 -4 21 -22 20 -81 -2 -86 -17 -4 -53 26 -53 44 0 4 -8 3 -19 -3
-37 -24 -68 13 -38 46 15 18 29 19 45 3z m387 -58 c0 -7 -6 -15 -12 -17 -8 -3
-13 4 -13 17 0 13 5 20 13 18 6 -3 12 -11 12 -18z m-235 -11 c0 -5 -4 -9 -10
-9 -5 0 -10 7 -10 16 0 8 5 12 10 9 6 -3 10 -10 10 -16z m-942 -25 c0 -23 -2
-24 -16 -11 -8 9 -12 23 -8 32 8 23 24 10 24 -21z m-29 -35 c1 -11 -17 -23
-51 -36 -59 -23 -83 -19 -50 7 12 10 18 20 15 24 -4 3 1 6 11 6 9 0 19 7 22
15 4 8 12 15 20 15 8 0 14 6 15 13 1 16 17 -23 18 -44z m995 0 c33 -16 36 -33
7 -37 -20 -3 -51 31 -51 58 0 10 3 11 8 4 4 -6 20 -17 36 -25z m-853 -56 c-8
-15 -10 -15 -11 -2 0 17 10 32 18 25 2 -3 -1 -13 -7 -23z m-295 -10 c-10 -10
-19 5 -10 18 6 11 8 11 12 0 2 -7 1 -15 -2 -18z m275 -44 c-5 -13 -10 -19 -10
-12 -1 15 10 45 15 40 3 -2 0 -15 -5 -28z m-151 -168 c-12 -58 -29 -81 -31
-43 -1 11 -3 9 -8 -7 l-6 -23 -15 26 c-7 15 -19 25 -25 22 -8 -3 -11 6 -9 25
4 35 21 68 34 70 6 1 14 2 19 3 5 0 13 4 17 9 4 4 14 1 22 -7 13 -13 13 -24 2
-75z m154 30 c-4 -17 -9 -30 -11 -27 -3 2 -2 19 2 36 9 41 17 33 9 -9z m-223
-85 c5 3 9 -2 9 -12 0 -13 -3 -14 -15 -4 -8 7 -15 18 -14 24 0 7 2 6 6 -2 2
-6 9 -10 14 -6z m514 -95 c-3 -11 -1 -22 4 -25 6 -4 8 -13 4 -21 -6 -17 -59
-20 -83 -5 -9 6 -19 5 -28 -2 -11 -9 -11 -7 -1 14 6 15 28 33 48 41 51 21 64
21 56 -2z m805 -58 c10 -10 -44 -44 -96 -59 -38 -11 -59 -12 -72 -5 -11 6 -22
7 -26 4 -3 -4 -17 0 -31 7 -23 12 -23 14 -7 25 15 10 88 29 152 39 26 4 71 -2
80 -11z m-1021 -24 c14 -16 33 -31 41 -32 9 -2 37 -15 62 -30 26 -15 53 -27
60 -27 10 0 10 -2 0 -8 -12 -8 32 -27 83 -35 15 -2 20 -10 18 -30 -2 -32 -2
-32 45 -8 32 16 48 18 109 11 85 -9 95 -14 92 -48 -2 -15 1 -34 6 -42 12 -20
15 -39 6 -44 -4 -3 -60 -7 -125 -10 -91 -4 -126 -2 -153 9 -43 18 -43 18 -43
1 0 -8 -7 -17 -16 -20 -12 -5 -15 -2 -10 10 3 8 6 20 6 25 0 5 6 9 13 9 25 0
69 44 62 63 -13 33 -105 13 -105 -22 0 -41 -43 -34 -46 7 0 9 -1 32 -2 51 -1
19 -5 31 -9 28 -3 -4 -12 -2 -20 4 -8 8 -13 8 -13 1 0 -6 6 -13 13 -16 10 -5
10 -7 0 -12 -7 -3 -13 -10 -13 -15 0 -6 5 -7 11 -3 8 5 9 2 1 -12 -8 -15 -4
-24 25 -51 19 -18 31 -37 28 -43 -4 -6 -11 -8 -16 -5 -5 4 -9 1 -9 -4 0 -19
-30 -12 -56 14 -14 14 -27 25 -30 25 -21 0 -234 198 -234 217 0 27 40 24 83
-7 23 -16 52 -32 64 -34 12 -3 34 -13 49 -23 26 -17 28 -17 21 0 -7 18 7 24
18 7 3 -5 21 -10 40 -10 19 0 37 -4 40 -10 8 -13 25 -13 25 0 0 5 -12 12 -27
15 -90 19 -103 25 -98 48 4 16 -1 29 -14 41 -20 18 -28 46 -14 46 3 0 18 -14
32 -31z m91 6 c0 -19 -11 -19 -36 0 -18 14 -18 14 9 15 17 0 27 -5 27 -15z
m654 -13 c9 -14 -10 -33 -27 -26 -18 6 -21 16 -10 27 9 9 31 9 37 -1z m-85
-11 c19 -12 6 -41 -19 -41 -25 0 -38 29 -19 41 8 5 16 9 19 9 3 0 11 -4 19 -9z
m-669 -31 c0 -5 -5 -10 -11 -10 -5 0 -7 5 -4 10 3 6 8 10 11 10 2 0 4 -4 4
-10z m48 -275 c-3 -3 -9 2 -12 12 -6 14 -5 15 5 6 7 -7 10 -15 7 -18z m690
-37 c4 -37 -25 -38 -38 -2 -14 35 -13 36 13 32 16 -2 23 -11 25 -30z m-770
-77 c-7 -12 -17 -21 -22 -21 -5 0 -17 -7 -27 -16 -11 -10 -19 -12 -24 -5 -3 6
-2 11 3 11 4 0 23 13 42 30 37 33 49 33 28 1z"/>
<path d="M2422 2823 c-6 -2 -10 -9 -6 -14 8 -14 21 -11 21 6 0 8 -1 15 -1 14
-1 0 -7 -3 -14 -6z"/>
<path d="M2455 2810 c-3 -5 -1 -10 4 -10 6 0 11 5 11 10 0 6 -2 10 -4 10 -3 0
-8 -4 -11 -10z"/>
<path d="M2660 3086 c0 -2 8 -10 18 -17 15 -13 16 -12 3 4 -13 16 -21 21 -21
13z"/>
<path d="M1670 2684 c0 -8 5 -12 10 -9 6 3 10 10 10 16 0 5 -4 9 -10 9 -5 0
-10 -7 -10 -16z"/>
<path d="M2740 2850 c0 -5 5 -10 11 -10 5 0 7 5 4 10 -3 6 -8 10 -11 10 -2 0
-4 -4 -4 -10z"/>
<path d="M2073 2440 c-2 -17 3 -19 25 -14 15 4 34 13 42 20 12 12 10 14 -15
14 -20 0 -26 -3 -17 -9 11 -6 9 -9 -6 -13 -15 -4 -19 -2 -15 8 3 8 1 14 -4 14
-5 0 -9 -9 -10 -20z"/>
<path d="M3425 2061 c-19 -8 -19 -8 3 -20 12 -6 22 -10 22 -7 0 2 3 11 6 20 7
17 0 19 -31 7z"/>
<path d="M3378 1078 c12 -6 22 -18 23 -27 0 -13 2 -13 6 -2 6 14 -22 42 -41
40 -6 0 -1 -5 12 -11z"/>
<path d="M3253 979 c9 -5 17 -16 17 -23 0 -7 12 -18 28 -25 l27 -13 -25 29
c-30 34 -42 43 -55 43 -5 -1 -2 -5 8 -11z"/>
<path d="M3774 3455 c24 -18 39 -20 34 -2 -3 6 -15 13 -29 15 -23 2 -23 2 -5
-13z"/>
<path d="M3807 3386 c-5 -12 -15 -14 -38 -9 -27 5 -31 3 -26 -10 4 -11 -5 -22
-29 -36 -34 -20 -39 -49 -6 -36 8 3 19 0 24 -7 6 -10 14 -9 39 5 17 9 37 17
44 17 10 0 12 11 8 43 -7 49 -9 53 -16 33z"/>
<path d="M3660 3278 c-1 -21 26 -58 42 -58 10 0 21 -7 25 -15 3 -9 18 -22 34
-31 28 -14 29 -14 29 8 0 35 -12 46 -50 49 -22 2 -43 12 -57 29 -12 14 -22 22
-23 18z"/>
<path d="M390 3073 c0 -28 -18 -87 -33 -110 -5 -8 -4 -13 2 -13 5 0 14 7 19
17 11 19 42 11 42 -12 0 -8 7 -15 15 -15 11 0 13 8 9 30 -5 24 -3 31 15 38 21
7 20 9 -18 50 -22 23 -43 42 -46 42 -3 0 -5 -12 -5 -27z"/>
<path d="M307 2959 c7 -7 15 -10 18 -7 3 3 -2 9 -12 12 -14 6 -15 5 -6 -5z"/>
<path d="M380 2933 c-6 -16 -15 -37 -21 -47 -9 -16 -8 -18 6 -12 9 3 23 6 31
6 10 0 14 12 14 40 0 46 -16 53 -30 13z"/>
<path d="M1258 2815 c-6 -14 -17 -25 -25 -25 -7 0 -13 -11 -13 -25 0 -18 4
-23 15 -19 8 4 15 12 15 20 0 8 9 23 20 34 22 22 26 40 10 40 -6 0 -16 -11
-22 -25z"/>
<path d="M930 2760 c0 -4 12 -15 26 -25 31 -20 96 -12 73 10 -16 14 -99 27
-99 15z"/>
<path d="M1048 2702 c-5 -36 4 -52 29 -52 6 0 14 9 18 19 3 11 19 24 35 30 30
10 38 25 21 36 -5 3 -12 1 -16 -5 -6 -9 -58 -6 -76 5 -4 3 -9 -12 -11 -33z"/>
<path d="M3832 2698 c-7 -7 -9 -27 -6 -52 5 -32 2 -47 -14 -66 -18 -22 -23
-23 -41 -12 -28 16 -31 16 -31 -10 0 -22 3 -23 92 -23 56 0 93 5 95 11 2 6
-15 38 -37 71 -25 37 -38 67 -34 77 7 19 -7 21 -24 4z"/>
<path d="M4026 2681 c-4 -7 -5 -15 -2 -18 9 -9 19 4 14 18 -4 11 -6 11 -12 0z"/>
<path d="M1150 2670 c0 -5 5 -10 11 -10 5 0 7 5 4 10 -3 6 -8 10 -11 10 -2 0
-4 -4 -4 -10z"/>
<path d="M4055 2579 c-5 -13 -15 -29 -23 -35 -13 -10 -14 -18 -5 -48 6 -20 7
-36 2 -36 -5 0 -9 -6 -9 -14 0 -8 -5 -16 -10 -18 -12 -4 29 -88 43 -88 4 0 7
9 7 20 0 11 -4 20 -10 20 -5 0 -10 9 -10 21 0 18 4 20 26 15 15 -4 33 -13 40
-21 8 -7 22 -12 31 -10 30 4 19 56 -30 140 -41 70 -46 75 -52 54z"/>
<path d="M4242 2488 l33 -42 3 27 c4 35 -13 57 -45 57 l-25 0 34 -42z"/>
<path d="M0 2311 c0 -71 4 -132 9 -135 4 -3 16 3 26 14 44 48 76 4 35 -47 -11
-14 -20 -31 -20 -38 0 -6 -11 -17 -25 -23 l-25 -12 0 -454 c0 -292 4 -457 10
-461 6 -3 10 -13 10 -21 0 -8 -4 -12 -10 -9 -6 4 -10 -17 -10 -54 0 -34 4 -61
10 -61 5 0 14 -9 20 -21 10 -17 8 -21 -9 -26 -27 -7 -27 -37 -1 -70 26 -33 26
-69 0 -85 -13 -8 -20 -24 -20 -42 l0 -29 25 29 c24 28 25 28 25 6 0 -14 -9
-27 -25 -34 -19 -9 -25 -19 -25 -45 0 -30 3 -33 28 -33 15 0 32 -4 37 -9 6 -5
21 -11 35 -13 32 -4 53 -44 38 -72 -16 -29 14 -47 64 -40 34 6 38 4 38 -15 0
-21 24 -29 35 -11 3 6 15 10 25 10 10 0 20 8 23 18 6 26 29 -35 25 -67 -2 -21
-8 -25 -26 -23 -15 1 -22 -2 -20 -10 3 -7 11 -13 19 -13 18 0 36 -52 23 -65
-5 -5 -30 -13 -55 -16 -39 -5 -49 -3 -76 20 -17 14 -36 26 -42 26 -6 0 -11 7
-11 15 0 8 -11 17 -24 21 -14 3 -37 26 -55 54 -29 45 -33 47 -56 37 l-25 -12
0 -247 0 -248 832 0 c458 0 828 4 823 8 -6 4 -37 26 -70 47 -32 22 -110 92
-173 155 -76 77 -110 106 -103 88 12 -32 12 -32 -41 -16 -38 11 -39 11 -73
-27 -20 -21 -38 -48 -41 -61 -8 -31 -62 -77 -81 -70 -12 5 -14 16 -11 44 5 30
0 43 -21 68 -14 17 -33 33 -43 37 -25 9 -34 64 -14 86 9 10 16 22 15 27 -1 5
-1 16 0 24 1 13 2 13 11 0 7 -12 10 -11 15 5 4 11 11 28 16 37 20 39 12 51
-32 44 -49 -8 -80 12 -48 32 24 15 66 15 75 0 4 -7 17 27 29 76 30 118 67 208
82 201 39 -14 -21 70 -70 98 -54 32 -71 52 -87 102 -15 47 -15 177 -1 233 6
22 11 66 11 98 1 59 24 180 43 221 9 21 109 73 139 73 26 0 27 11 7 56 -18 43
-18 46 -1 92 29 76 21 94 -90 181 -42 33 -80 70 -83 82 -13 38 -105 119 -137
119 -5 0 -21 9 -35 20 -31 24 -56 25 -87 5 -29 -19 -52 -11 -71 25 -11 22 -20
27 -47 25 -18 -1 -42 -5 -52 -10 -11 -5 -31 -4 -48 3 -28 10 -97 6 -99 -7 0
-3 -2 -15 -4 -26 -10 -51 -9 -64 8 -82 16 -18 16 -23 2 -56 -8 -21 -19 -37
-24 -37 -10 0 -21 35 -21 70 l0 25 -25 -30 c-13 -16 -28 -34 -32 -40 -16 -20
-44 -116 -37 -126 3 -6 1 -30 -6 -54 -10 -37 -10 -47 4 -66 9 -13 16 -31 16
-41 0 -23 47 -54 76 -50 12 2 25 -2 29 -7 3 -6 13 -11 21 -11 19 0 73 -60 74
-82 0 -22 -5 -22 -55 2 -22 11 -50 19 -62 20 -13 0 -23 3 -23 8 0 4 -17 8 -37
9 -41 2 -61 18 -79 65 -6 18 -21 58 -33 88 -12 30 -21 66 -21 80 0 14 -13 52
-30 85 -35 71 -36 85 -10 115 21 25 21 31 -11 134 -18 58 -78 136 -105 136
-15 0 -27 27 -28 59 -1 13 -7 26 -13 28 -10 4 -13 -26 -13 -126z m518 -168
c-2 -20 -9 -29 -26 -31 -30 -5 -42 26 -17 44 31 23 47 17 43 -13z m26 12 c3
-8 1 -15 -4 -15 -6 0 -10 7 -10 15 0 8 2 15 4 15 2 0 6 -7 10 -15z m-34 -240
c0 -9 -6 -12 -15 -9 -8 4 -15 10 -15 15 0 5 7 9 15 9 8 0 15 -7 15 -15z m55 4
c4 -6 5 -12 2 -15 -7 -7 -37 7 -37 17 0 13 27 11 35 -2z m40 -210 c4 -11 4
-23 0 -27 -7 -7 -25 17 -25 36 0 20 18 14 25 -9z m241 -63 c3 -14 3 -30 -1
-36 -4 -6 -1 -18 6 -26 11 -13 14 -11 25 15 7 17 18 31 23 31 6 0 27 -17 48
-37 20 -21 42 -38 47 -38 5 0 11 -5 13 -11 2 -7 -13 -15 -34 -19 -21 -5 -45
-10 -53 -11 -8 -2 -26 5 -40 14 -14 10 -32 21 -41 24 -18 7 -41 82 -32 104 8
23 32 16 39 -10z m-532 -362 c23 -9 20 -34 -4 -34 -13 0 -20 7 -20 20 0 22 1
23 24 14z m211 -214 c3 -5 1 -10 -4 -10 -6 0 -11 5 -11 10 0 6 2 10 4 10 3 0
8 -4 11 -10z m-177 -52 c6 -6 13 -22 13 -37 2 -25 2 -25 6 -3 5 23 5 23 34 -9
16 -18 29 -42 29 -53 0 -27 -29 -56 -56 -56 -15 0 -29 -11 -40 -30 -15 -24
-26 -30 -70 -36 -66 -8 -90 -3 -86 19 2 10 -7 22 -22 28 -31 15 -39 34 -24 59
10 15 9 22 -5 38 -9 10 -17 32 -17 49 0 27 5 32 30 38 16 4 34 4 39 1 5 -4 12
-3 15 2 7 11 138 2 154 -10z m251 -14 c3 -16 1 -17 -13 -5 -19 16 -21 34 -3
29 6 -3 14 -13 16 -24z m157 -39 c8 -19 -13 -45 -31 -39 -16 7 -27 32 -19 45
9 15 44 10 50 -6z m167 -82 c11 -18 -9 -43 -33 -43 -39 0 -81 91 -47 103 13 4
66 -35 80 -60z m117 7 c25 -16 -1 -45 -45 -48 -51 -4 -68 13 -36 39 25 21 57
24 81 9z m-358 -34 c12 -18 9 -36 -6 -36 -8 0 -18 -9 -21 -20 -7 -22 -8 -22
-45 -25 -51 -5 -86 -14 -118 -30 -41 -21 -62 -14 -62 23 0 36 28 63 58 55 15
-4 22 -1 22 9 0 29 23 38 94 36 39 -1 74 -7 78 -12z m196 -132 c35 -10 26 -30
-28 -58 -27 -14 -51 -26 -54 -26 -10 0 -15 64 -5 76 12 15 49 18 87 8z m-28
-134 c0 -5 -4 -10 -10 -10 -5 0 -10 5 -10 10 0 6 5 10 10 10 6 0 10 -4 10 -10z
m-230 -86 c0 -16 -16 -19 -25 -4 -8 13 4 32 16 25 5 -4 9 -13 9 -21z m420 -24
c0 -5 -9 -10 -21 -10 -11 0 -17 5 -14 10 3 6 13 10 21 10 8 0 14 -4 14 -10z
m-237 -16 c12 -4 17 -17 18 -47 1 -23 2 -64 3 -90 1 -26 -1 -52 -4 -57 -3 -4
-30 -10 -60 -12 l-55 -3 -23 49 c-13 26 -32 51 -43 53 -19 5 -27 23 -9 23 5 0
14 19 21 43 6 23 13 46 16 51 5 7 97 1 136 -10z m-345 -32 c2 -7 -3 -12 -12
-12 -9 0 -16 7 -16 16 0 17 22 14 28 -4z m504 -34 c13 -21 9 -45 -8 -52 -61
-23 -109 12 -79 58 14 21 20 23 47 15 18 -5 35 -14 40 -21z m-434 -10 c20 -20
14 -43 -18 -71 -16 -15 -30 -31 -30 -37 0 -5 -7 -7 -15 -4 -23 9 -18 34 6 34
18 0 20 5 16 27 -5 28 7 63 21 63 5 0 13 -5 20 -12z m79 -3 c8 -22 -6 -33 -17
-15 -13 20 -12 30 0 30 6 0 13 -7 17 -15z m-137 -30 c0 -21 -36 -39 -43 -21
-6 16 11 36 30 36 7 0 13 -7 13 -15z m-333 -277 c16 -18 19 -28 12 -46 -4 -12
-12 -22 -16 -22 -16 0 -75 69 -68 79 11 19 51 12 72 -11z"/>
<path d="M189 973 c-19 -39 -14 -45 23 -30 28 12 28 12 10 38 l-17 26 -16 -34z"/>
<path d="M255 941 c-7 -12 55 -81 72 -81 7 0 13 5 13 10 0 6 -4 10 -10 10 -5
0 -16 13 -24 29 -16 30 -42 46 -51 32z"/>
<path d="M615 840 c-3 -5 1 -10 9 -10 9 0 16 5 16 10 0 6 -4 10 -9 10 -6 0
-13 -4 -16 -10z"/>
<path d="M770 361 c0 -6 5 -13 10 -16 6 -3 10 1 10 9 0 9 -4 16 -10 16 -5 0
-10 -4 -10 -9z"/>
<path d="M2505 2140 c-40 -20 -54 -28 -109 -64 l-30 -20 28 -7 c23 -6 33 -3
57 22 15 16 32 29 37 29 15 0 73 48 65 53 -5 3 -27 -3 -48 -13z"/>
<path d="M1705 2011 c-3 -5 -1 -12 5 -16 5 -3 10 1 10 9 0 18 -6 21 -15 7z"/>
<path d="M2310 2010 c20 -13 60 -13 60 0 0 6 -17 10 -37 10 -28 0 -34 -3 -23
-10z"/>
<path d="M2470 1881 c0 -5 7 -12 16 -15 14 -5 15 -4 4 9 -14 17 -20 19 -20 6z"/>
<path d="M2461 1853 c-1 -6 -4 -20 -7 -30 -5 -17 -5 -17 6 0 6 10 9 23 6 30
-3 9 -5 9 -5 0z"/>
<path d="M2650 1709 c0 -2 -4 -19 -9 -37 -5 -17 -6 -32 -2 -32 10 0 24 61 16
68 -3 3 -5 3 -5 1z"/>
<path d="M1407 1451 c-4 -17 -3 -21 5 -13 5 5 8 16 6 23 -3 8 -7 3 -11 -10z"/>
<path d="M2770 1441 c0 -6 4 -13 10 -16 6 -3 7 1 4 9 -7 18 -14 21 -14 7z"/>
<path d="M2855 1400 c3 -5 8 -10 11 -10 2 0 4 5 4 10 0 6 -5 10 -11 10 -5 0
-7 -4 -4 -10z"/>
<path d="M1092 1109 c-41 -42 -48 -73 -23 -112 l20 -32 9 25 c5 14 6 27 2 30
-4 3 -10 15 -14 28 -6 17 0 29 23 53 17 17 31 32 31 35 0 12 -21 0 -48 -27z"/>
<path d="M2483 828 c4 -13 -5 -105 -17 -168 -5 -26 -4 -31 4 -18 9 15 13 15
50 -3 46 -22 74 -25 48 -5 -10 7 -18 18 -18 24 0 6 -5 14 -12 18 -7 4 -8 3 -4
-4 4 -7 2 -12 -3 -12 -6 0 -11 10 -11 23 0 18 -2 19 -11 7 -9 -12 -10 -11 -6
8 3 12 1 22 -4 22 -11 0 -8 69 3 76 4 3 9 -7 9 -23 1 -15 3 -21 6 -12 4 18 44
34 40 17 -1 -6 4 -13 12 -16 8 -3 11 0 7 7 -4 6 -2 11 3 11 6 0 11 -7 11 -15
0 -9 7 -18 15 -21 8 -4 13 -10 10 -14 -7 -11 44 -65 68 -73 24 -9 21 -44 -7
-72 l-24 -23 62 -31 c33 -16 81 -34 106 -40 25 -6 86 -32 135 -58 110 -58 149
-73 165 -63 16 10 8 46 -9 42 -10 -2 -12 6 -7 31 l6 34 -72 22 c-49 14 -93 36
-133 67 -74 56 -132 87 -147 78 -6 -4 -8 -3 -5 3 4 6 -19 26 -51 46 -31 20
-70 52 -85 71 -15 20 -34 36 -42 36 -8 0 -29 9 -47 20 -38 23 -52 25 -45 8z
m225 -262 c-7 -8 -16 -12 -21 -9 -11 7 2 23 19 23 12 0 12 -2 2 -14z"/>
<path d="M3050 643 c1 -4 7 -19 16 -33 l14 -25 -2 29 c-2 16 -9 31 -15 34 -7
2 -13 0 -13 -5z"/>
<path d="M2426 572 c-15 -33 -16 -43 -5 -60 12 -18 11 -26 -5 -52 -18 -31 -14
-58 4 -30 9 13 10 13 10 0 0 -13 1 -13 10 0 5 8 7 25 4 37 -3 12 1 36 9 52 9
18 11 33 6 37 -5 3 -7 10 -4 15 4 5 2 16 -3 24 -7 13 -12 8 -26 -23z"/>
<path d="M190 404 c0 -10 6 -14 15 -10 9 3 18 -1 21 -9 8 -20 34 -19 34 0 0 8
1 18 3 23 1 4 -15 8 -35 9 -29 2 -38 -2 -38 -13z"/>
<path d="M2380 400 c0 -19 3 -21 12 -12 9 9 9 15 0 24 -9 9 -12 7 -12 -12z"/>
<path d="M1240 387 c0 -15 27 -43 34 -36 3 2 -4 15 -15 28 -13 16 -19 18 -19
8z"/>
<path d="M2840 291 c13 -25 33 -28 28 -4 -2 10 -11 19 -21 21 -16 3 -17 1 -7
-17z"/>
<path d="M2387 161 c-5 -22 -37 -30 -37 -9 0 6 -7 3 -15 -8 -12 -16 -16 -17
-24 -4 -5 8 -7 18 -5 22 3 4 1 8 -5 8 -16 0 -102 -106 -98 -121 2 -8 2 -11 0
-6 -8 14 -30 7 -59 -18 l-29 -25 48 0 c34 0 46 3 41 12 -5 8 -2 9 11 5 14 -6
16 -3 12 13 -3 11 -1 18 4 14 5 -3 9 0 9 5 0 6 16 17 35 25 21 9 35 22 36 33
0 10 3 13 5 7 3 -6 17 -9 32 -6 24 5 24 6 7 13 -20 8 -20 8 0 9 29 1 55 24 46
39 -6 9 -10 7 -14 -8z m-87 -21 c0 -5 -2 -10 -4 -10 -3 0 -8 5 -11 10 -3 6 -1
10 4 10 6 0 11 -4 11 -10z"/>
<path d="M4190 10 l-55 -7 73 -1 c47 -1 71 2 67 8 -3 5 -12 9 -18 8 -7 -1 -37
-4 -67 -8z"/>
</g>
</svg>
